:SAMPLES-PER-SECOND 30
:FRAME-RANGE 1-564
:FULLY-SPECIFIED
:DEGREES
36
root  86.1726 38.4657 135.354 -4.58216 -70.5391 10.3528
RightUpLeg  -0.254507 -7.47578 -2.67731
RightLeg  14.9982 -2.27549 0.205376
RightFoot  -19.6332 -0.188946 -0.774269
RightToes  1.21801e-010 1.2921e-014 -6.02303e-014
Spine  -8.53855 0.149273 5.5677
Spine1  9.42133 0.285316 -2.13399
HEad  19.9735 1.11132 -6.38941
LeftShoulder1  1.17729 -0.513305 -24.8876
LeftArm  -6.23738 12.9655 -48.9419
LeftForeArm  30.5318 5.53863 -11.709
LeftHand  0.0146245 6.45894 4.76849
RightShoulder  1.93382 2.45639 27.6059
RightArm  -26.2258 6.90474 51.4391
RightForeArm  71.3906 -5.09289 2.57207
RightHand  0.131311 -6.42356 -16.5105
LeftUpLeg  -25.4734 -5.48139 -0.0221495
LeftLeg  21.8781 7.59303 3.6679
LeftFoot  -5.19705 0.392999 -6.73767
LeftToes  1.70735e-010 3.74918e-011 3.68705e-011
37
root  85.7145 38.4269 135.583 -5.70859 -71.0055 11.6391
RightUpLeg  0.672366 -7.44636 -3.31073
RightLeg  14.5057 -1.53278 0.230109
RightFoot  -20.1566 -0.184613 -0.625779
RightToes  1.21801e-010 1.2921e-014 -6.02303e-014
Spine  -8.12901 0.6218 5.75743
Spine1  9.61469 0.858656 -2.68354
HEad  20.0874 0.518603 -6.60953
LeftShoulder1  1.08688 -0.166799 -25.3796
LeftArm  -6.28134 14.3821 -48.0622
LeftForeArm  30.7808 5.71404 -11.6774
LeftHand  -0.0137405 5.71306 4.45535
RightShoulder  2.04075 2.84335 27.2293
RightArm  -24.4144 7.9143 52.1449
RightForeArm  68.55 -5.38706 3.67125
RightHand  0.104423 -6.22879 -16.5635
LeftUpLeg  -26.6836 -7.31927 0.318138
LeftLeg  16.9612 9.32197 3.50067
LeftFoot  -2.18077 0.570075 -6.94822
LeftToes  1.70735e-010 3.74918e-011 3.68705e-011
38
root  85.1703 38.3561 135.84 -6.18193 -71.5843 12.2806
RightUpLeg  1.76984 -7.31932 -3.68146
RightLeg  13.8824 -1.06943 0.227915
RightFoot  -20.6505 -0.173486 -0.414487
RightToes  1.21801e-010 1.2921e-014 -6.02303e-014
Spine  -8.0622 0.980697 6.24255
Spine1  10.1126 1.42283 -3.62992
HEad  20.3592 0.446673 -6.46289
LeftShoulder1  0.978481 0.160891 -25.1841
LeftArm  -6.5492 16.1025 -47.6269
LeftForeArm  30.4688 5.88427 -11.6071
LeftHand  0.0182322 6.5487 4.79872
RightShoulder  2.1445 3.18513 27.0831
RightArm  -23.0703 9.28202 52.9803
RightForeArm  67.23 -5.55187 4.3627
RightHand  0.116579 -6.33487 -16.2681
LeftUpLeg  -27.6687 -5.70649 -0.187477
LeftLeg  12.2919 8.17289 2.91384
LeftFoot  -0.517912 0.666745 -7.00097
LeftToes  1.70735e-010 3.74918e-011 3.68705e-011
39
root  84.5284 38.2627 136.144 -6.96771 -72.2212 13.2169
RightUpLeg  3.10545 -7.53676 -4.3335
RightLeg  13.2207 -0.222895 0.449257
RightFoot  -21.2727 -0.168809 -0.285846
RightToes  1.21801e-010 1.2921e-014 -6.02303e-014
Spine  -8.39671 1.07679 6.55226
Spine1  11.0141 1.80244 -4.71363
HEad  20.3519 0.793361 -6.03651
LeftShoulder1  0.81442 0.639278 -24.5849
LeftArm  -6.92905 18.1017 -47.4896
LeftForeArm  30.3058 5.87791 -11.5031
LeftHand  0.0183111 6.57926 4.70819
RightShoulder  2.24101 3.47842 27.0841
RightArm  -20.571 10.9648 53.7731
RightForeArm  65.356 -5.84248 5.70552
RightHand  0.0957622 -6.18716 -16.2179
LeftUpLeg  -28.3283 -5.44772 -0.666488
LeftLeg  8.14222 8.60362 3.37398
LeftFoot  -0.122846 0.680824 -6.92056
LeftToes  1.70735e-010 3.74918e-011 3.68705e-011
40
root  83.8028 38.1392 136.468 -8.12945 -72.8449 14.4758
RightUpLeg  4.60746 -8.26244 -5.2781
RightLeg  12.7374 0.957668 0.840078
RightFoot  -21.9381 -0.169637 -0.227903
RightToes  1.21801e-010 1.2921e-014 -6.02303e-014
Spine  -8.11829 1.30096 5.49834
Spine1  10.9337 1.99784 -4.24136
HEad  21.0304 0.861561 -6.07471
LeftShoulder1  0.843606 0.578962 -24.9985
LeftArm  -6.72063 20.1313 -46.509
LeftForeArm  30.3401 6.13942 -11.5866
LeftHand  0.0092078 6.16022 5.46465
RightShoulder  2.17081 3.26417 27.0881
RightArm  -19.2581 12.1493 54.357
RightForeArm  64.5011 -5.97101 6.3019
RightHand  0.125619 -6.39689 -16.3153
LeftUpLeg  -28.7237 -4.56867 -1.24242
LeftLeg  4.65662 8.29078 3.33727
LeftFoot  -0.0832113 0.640431 -6.48967
LeftToes  1.70735e-010 3.74918e-011 3.68705e-011
41
root  83.0068 37.9926 136.842 -9.73658 -73.708 16.3918
RightUpLeg  5.60804 -8.05363 -6.04836
RightLeg  12.8757 1.68248 0.621263
RightFoot  -22.738 -0.134688 0.193205
RightToes  1.21801e-010 1.2921e-014 -6.02303e-014
Spine  -8.25972 1.51556 4.97993
Spine1  11.1568 2.44836 -4.83174
HEad  21.657 1.18054 -5.5854
LeftShoulder1  0.87054 0.479117 -24.8523
LeftArm  -6.60813 21.8296 -45.724
LeftForeArm  30.9192 6.54875 -11.6201
LeftHand  -0.00394955 6.16354 3.77413
RightShoulder  2.19731 3.39548 26.8288
RightArm  -16.4922 12.8496 54.9711
RightForeArm  61.4999 -6.32369 7.82438
RightHand  0.188267 -6.83152 -16.4863
LeftUpLeg  -29.0677 -4.29418 -1.37224
LeftLeg  2.03878 8.68429 3.04072
LeftFoot  -0.234547 0.623809 -6.39857
LeftToes  1.70735e-010 3.74918e-011 3.68705e-011
42
root  82.1374 37.8079 137.265 -10.7902 -74.4566 17.4918
RightUpLeg  6.96628 -7.56824 -6.66492
RightLeg  13.1435 2.39377 0.462347
RightFoot  -23.5567 -0.0382382 1.1341
RightToes  1.21801e-010 1.2921e-014 -6.02303e-014
Spine  -8.31727 1.48854 4.36978
Spine1  11.6293 2.60347 -5.19594
HEad  21.7525 1.15352 -5.09656
LeftShoulder1  0.786695 0.762098 -24.9876
LeftArm  -6.44013 22.8774 -44.8114
LeftForeArm  31.4894 6.98512 -11.624
LeftHand  -0.0113301 6.19802 2.75323
RightShoulder  2.18195 3.38168 26.6597
RightArm  -19.742 13.8808 56.8256
RightForeArm  65.6873 -5.81552 5.61528
RightHand  0.000301477 -5.48699 -16.7073
LeftUpLeg  -29.6519 -4.3132 -1.33945
LeftLeg  2.17168 8.72609 3.13242
LeftFoot  -0.804864 0.540747 -5.81023
LeftToes  1.70735e-010 3.74918e-011 3.68705e-011
43
root  81.1575 37.6191 137.792 -12.2374 -75.2933 18.8955
RightUpLeg  7.98968 -6.17672 -7.55877
RightLeg  14.7737 3.40231 0.504606
RightFoot  -24.22 0.109404 2.4239
RightToes  1.21801e-010 1.2921e-014 -6.02303e-014
Spine  -8.30064 1.63148 3.94901
Spine1  11.8151 2.90442 -5.57549
HEad  21.8364 0.952976 -4.56979
LeftShoulder1  0.790588 0.753734 -25.0411
LeftArm  -6.35146 23.7421 -44.2227
LeftForeArm  32.4207 7.56897 -11.6403
LeftHand  -0.00199434 6.54861 3.00064
RightShoulder  2.13332 3.23764 26.6302
RightArm  -19.2572 14.2358 57.4976
RightForeArm  65.3256 -5.85314 5.76384
RightHand  0.0820315 -6.05931 -16.7748
LeftUpLeg  -29.883 -4.45832 -1.48849
LeftLeg  4.23704 8.74021 3.37746
LeftFoot  -1.42809 0.475088 -5.37793
LeftToes  1.70735e-010 3.74918e-011 3.68705e-011
44
root  80.0923 37.5351 138.375 -14.8412 -76.2555 21.3554
RightUpLeg  9.22414 -4.6856 -8.52953
RightLeg  15.9976 3.29039 0.618625
RightFoot  -23.9023 0.263984 3.87051
RightToes  1.21801e-010 1.2921e-014 -6.02303e-014
Spine  -8.69219 1.86098 3.19308
Spine1  12.5699 3.44319 -6.27758
HEad  22.3499 0.55561 -3.41033
LeftShoulder1  0.83557 0.604816 -24.9969
LeftArm  -6.45202 24.5247 -43.8847
LeftForeArm  33.4395 7.64953 -11.6099
LeftHand  -0.0323281 4.90898 1.77672
RightShoulder  2.18014 3.42019 26.4376
RightArm  -16.917 13.6911 57.237
RightForeArm  62.9582 -6.16756 7.17267
RightHand  0.129327 -6.38161 -16.9073
LeftUpLeg  -29.7733 -5.05644 -1.68395
LeftLeg  7.9392 9.68777 3.93056
LeftFoot  -2.03486 0.487956 -5.84291
LeftToes  1.70735e-010 3.74918e-011 3.68705e-011
45
root  78.97 37.5324 138.963 -20.5535 -77.2008 27.0583
RightUpLeg  9.34372 -1.01378 -9.99885
RightLeg  19.3571 3.40685 1.12026
RightFoot  -22.8413 0.531364 6.81033
RightToes  1.21801e-010 1.2921e-014 -6.02303e-014
Spine  -8.94079 1.89365 0.8227
Spine1  12.6304 3.5558 -5.94325
HEad  23.3659 0.535665 -1.90878
LeftShoulder1  0.706178 1.03579 -25.1775
LeftArm  -7.04793 25.2243 -43.4684
LeftForeArm  32.7295 7.61668 -11.3287
LeftHand  -0.0190299 5.82556 2.60194
RightShoulder  2.26125 3.63962 26.5925
RightArm  -15.9824 13.4659 57.0828
RightForeArm  62.9658 -6.26267 7.76483
RightHand  0.166178 -6.60271 -17.3317
LeftUpLeg  -29.071 -5.62677 -2.32362
LeftLeg  9.97205 10.8347 4.21434
LeftFoot  0.933552 0.804236 -7.52579
LeftToes  1.70735e-010 3.74918e-011 3.68705e-011
46
root  77.7502 37.5786 139.574 -21.8556 -76.1355 28.068
RightUpLeg  9.51623 1.259 -10.6519
RightLeg  23.9092 3.12422 1.29854
RightFoot  -20.4904 0.718077 10.6889
RightToes  1.21801e-010 1.2921e-014 -6.02303e-014
Spine  -9.80753 1.06902 -1.80079
Spine1  13.555 2.68393 -5.37646
HEad  24.3877 -0.199921 -0.313848
LeftShoulder1  0.719473 1.01562 -25.4976
LeftArm  -6.29766 24.9279 -42.7573
LeftForeArm  33.6867 7.63621 -11.5495
LeftHand  -0.0345724 3.87803 1.10627
RightShoulder  2.22934 3.51075 26.7434
RightArm  -18.607 12.7374 57.5886
RightForeArm  67.3335 -5.86857 6.31657
RightHand  0.0847891 -6.045 -17.4769
LeftUpLeg  -28.3421 -6.41624 -3.45764
LeftLeg  13.1234 10.2943 4.04191
LeftFoot  0.265955 0.779724 -7.68092
LeftToes  1.70735e-010 3.74918e-011 3.68705e-011
47
root  76.6634 37.6395 140.152 -20.823 -75.4388 26.8665
RightUpLeg  7.02232 3.01596 -10.2456
RightLeg  31.9268 1.88419 1.0279
RightFoot  -16.3374 0.524134 14.4962
RightToes  1.21801e-010 1.2921e-014 -6.02303e-014
Spine  -9.5414 0.749864 -3.28984
Spine1  13.2782 2.32254 -5.49952
HEad  25.7177 -0.923026 1.13176
LeftShoulder1  0.917481 0.329302 -24.8811
LeftArm  -6.11006 23.8002 -43.3695
LeftForeArm  33.0163 7.67957 -11.7603
LeftHand  -0.0162694 5.73502 3.65859
RightShoulder  2.05022 2.85637 27.3165
RightArm  -18.3799 11.2718 56.694
RightForeArm  67.251 -5.92215 6.62728
RightHand  0.147888 -6.44729 -17.7791
LeftUpLeg  -27.6243 -5.52882 -4.38863
LeftLeg  15.8519 8.62099 3.47421
LeftFoot  -2.09017 0.685837 -8.31287
LeftToes  1.70735e-010 3.74918e-011 3.68705e-011
48
root  75.609 37.8133 140.734 -18.981 -75.0403 24.5455
RightUpLeg  2.44979 1.81722 -10.5709
RightLeg  42.7477 1.42709 1.12349
RightFoot  -8.6619 -0.403386 14.6431
RightToes  1.21801e-010 1.2921e-014 -6.02303e-014
Spine  -9.25822 0.452767 -3.89174
Spine1  13.2921 1.98052 -5.76035
HEad  26.6315 -1.49552 2.13532
LeftShoulder1  1.08311 -0.276126 -24.2697
LeftArm  -6.13483 22.2485 -44.4702
LeftForeArm  33.1689 7.67473 -11.7445
LeftHand  -0.00610956 6.06168 3.86836
RightShoulder  2.04156 2.86365 27.1299
RightArm  -18.2729 9.31802 55.9613
RightForeArm  66.0753 -6.01001 6.89809
RightHand  0.169861 -6.61784 -17.4524
LeftUpLeg  -25.6812 -6.48749 -4.83091
LeftLeg  16.6514 8.56216 3.95048
LeftFoot  -2.83942 0.644839 -8.43674
LeftToes  1.70735e-010 3.74918e-011 3.68705e-011
